<svg id="Layer_1" data-name="Layer 1" xmlns="http://www.w3.org/2000/svg" xmlns:xlink="http://www.w3.org/1999/xlink" viewBox="0 0 908.01 561.56"><defs><style>.cls-1,.cls-12,.cls-13,.cls-8,.cls-9{fill:none;}.cls-2{clip-path:url(#clip-path);}.cls-3{clip-path:url(#clip-path-2);}.cls-4{fill:#009fe3;}.cls-5{fill:#2c4b9b;}.cls-6{opacity:0.8;}.cls-7{clip-path:url(#clip-path-4);}.cls-12,.cls-13,.cls-8,.cls-9{stroke:#fff;stroke-miterlimit:10;}.cls-8{stroke-width:0.5px;}.cls-9{stroke-width:0.4px;}.cls-10{clip-path:url(#clip-path-6);}.cls-11{fill:#2a4b9b;}.cls-12{stroke-width:0.6px;}</style><clipPath id="clip-path" transform="translate(-148.48 -107.19)"><rect class="cls-1" width="1190.55" height="841.89"/></clipPath><clipPath id="clip-path-2" transform="translate(-148.48 -107.19)"><rect class="cls-1" width="1190.55" height="841.89"/></clipPath><clipPath id="clip-path-4" transform="translate(-148.48 -107.19)"><rect class="cls-1" x="178.46" y="410.73" width="843.77" height="32.35"/></clipPath><clipPath id="clip-path-6" transform="translate(-148.48 -107.19)"><rect x="179.42" y="434.16" width="841.49" height="185.63"/></clipPath></defs><title>bm_coverillus_v1</title><g class="cls-2"><g class="cls-3"><path class="cls-4" d="M903,369.27l24.42-22-.17-5.24,3.84-3.26v-2.32l2.26-1.74L602.77,256.35l-1.4-102.06c.55,3.16,1.08,22.68,1.48,24,1.45,4.65-.17,9.88,1,14.14a113.34,113.34,0,0,0,4.81,12c3-1.74,12.38-5.93,12.38-5.93a46.66,46.66,0,0,0-3.93-5.62C615,190.32,613.64,179,618.48,172s1.21-23.76-1.82-27.05-6.09-19.25-10.6-22.28c-3.08-2.07-3.32-8.39-3.32-8.39l-1.56-3c1.74,0,3.14-.91,3.14-2s-1.42-2-3.17-2-7.17.91-7.17,2,1.38,2,3.09,2a70.34,70.34,0,0,0-2.19,15.51c-.08,3-1.21,7.7-.65,12.66l-4.67,118.36-323,81,6.53,6.14v5.48l24.45,20.35h-149v298h908V369.27Z" transform="translate(-148.48 -107.19)"/><path class="cls-5" d="M890.48,372.64,914,351.44l-.16-5,3.7-3.15V341l2.18-1.68L600,263.74,598.6,165.3A67.68,67.68,0,0,0,600,172c1.4,4.48,4.67,9.53,5.83,13.64a109.64,109.64,0,0,0,4.64,11.58,15.57,15.57,0,0,1,6.15-1.87,45.57,45.57,0,0,0-3.79-5.42c-2-2.43-1.46-10.46,3.21-17.19s1.17-13.26-1.75-16.44-5.88-18.56-10.23-21.49c-3-2-3.2-8.09-3.2-8.09l-1.5-2.94c1.67,0,3-.88,3-2s-1.37-2-3.06-2-3.06.88-3.06,2,1.33,1.92,3,2a67.74,67.74,0,0,0-2.11,15c-.07,2.93-1.17,7.43-.62,12.21L592,265.12,276.62,343.25l6.3,5.92v5.29l23.58,19.62H158V661.49h884.43V372.64Z" transform="translate(-148.48 -107.19)"/></g><g class="cls-3"><g class="cls-6"><g class="cls-7"><polygon points="872.43 326.96 850.33 335.63 46.58 335.63 30.94 326.96 205.21 325.98 173.63 304.92 726.06 303.78 693.64 326.96 872.43 326.96"/><polygon class="cls-8" points="872.43 326.96 850.33 335.63 46.58 335.63 30.94 326.96 205.21 325.98 173.63 304.92 726.06 303.78 693.64 326.96 872.43 326.96"/></g></g></g><line class="cls-9" x1="850.33" y1="335.63" x2="850.33" y2="512.59"/><line class="cls-9" x1="46.58" y1="335.63" x2="46.58" y2="512.59"/><g class="cls-3"><g class="cls-6"><rect x="30.94" y="326.96" width="841.49" height="185.63"/><g class="cls-10"><polygon points="872.43 326.96 851.34 335.63 46.58 335.63 30.94 326.96 30.94 512.59 872.43 512.59 872.43 326.96"/></g></g></g><rect class="cls-11" x="434.11" y="446.14" width="33.63" height="67.72"/><g class="cls-3"><path d="M225.46,434.15s-9.37,3-5.31,11.41,10.62,1.26,10.62,1.26L228.11,611,225,614.65l.65,2.24-4.76,4.05h37.6l-4.62-3.63,1-2.66-3.35-4,.14-160.43s2.93,6,6.85,4.34,1.81-11.6,1.81-11.6-4.33-7.86-13.27-8.76Z" transform="translate(-148.48 -107.19)"/><path d="M290.89,434.15s-9.37,3-5.31,11.41,10.62,1.26,10.62,1.26L293.54,611l-3.16,3.63.65,2.24-4.76,4.05h37.6l-4.62-3.63,1-2.66-3.35-4L317,450.17s2.93,6,6.85,4.34,1.81-11.6,1.81-11.6-4.33-7.86-13.27-8.76Z" transform="translate(-148.48 -107.19)"/><path d="M974.6,434.15s9.37,3,5.32,11.41-10.63,1.26-10.63,1.26L972,611l3.16,3.63-.65,2.24,4.76,4.05H941.63l4.61-3.63-1-2.66,3.35-4-.14-160.43s-2.93,6-6.84,4.34-1.82-11.6-1.82-11.6,4.33-7.86,13.27-8.76Z" transform="translate(-148.48 -107.19)"/><path d="M909.17,434.15s9.37,3,5.32,11.41-10.63,1.26-10.63,1.26L906.52,611l3.16,3.63-.65,2.24,4.76,4.05H876.2l4.61-3.63-1-2.66,3.35-4L883,450.17s-2.93,6-6.84,4.34-1.82-11.6-1.82-11.6,4.33-7.86,13.27-8.76Z" transform="translate(-148.48 -107.19)"/><polygon points="206.68 326.96 173.63 304.92 726.24 303.19 693.64 326.96 872.43 326.96 872.43 274.11 724.35 274.11 746.47 254.21 746.32 249.46 749.79 246.51 749.79 244.41 751.85 242.83 450.35 171.56 147.8 246.51 153.72 252.07 153.72 257.04 175.87 275.46 30.94 275.46 30.94 326.96 206.68 326.96"/><polygon class="cls-8" points="206.68 326.96 173.63 304.92 726.24 303.19 693.64 326.96 872.43 326.96 872.43 274.11 724.35 274.11 746.47 254.21 746.32 249.46 749.79 246.51 749.79 244.41 751.85 242.83 450.35 171.56 147.8 246.51 153.72 252.07 153.72 257.04 175.87 275.46 30.94 275.46 30.94 326.96 206.68 326.96"/><polygon points="169.07 541.34 199.45 512.59 697.71 512.59 725.32 541.36 169.07 541.34"/><line class="cls-12" x1="172.11" y1="538.47" x2="722.56" y2="538.47"/><line class="cls-12" x1="175.15" y1="535.59" x2="719.8" y2="535.59"/><line class="cls-12" x1="178.19" y1="532.71" x2="717.04" y2="532.71"/><line class="cls-12" x1="181.23" y1="529.84" x2="714.28" y2="529.84"/><line class="cls-12" x1="184.27" y1="526.96" x2="711.52" y2="526.96"/><line class="cls-12" x1="187.31" y1="524.09" x2="708.76" y2="524.09"/><line class="cls-12" x1="190.34" y1="521.21" x2="705.99" y2="521.21"/><line class="cls-12" x1="193.38" y1="518.34" x2="703.24" y2="518.34"/><line class="cls-12" x1="196.42" y1="515.46" x2="700.48" y2="515.46"/><polygon points="697.71 512.59 872.43 512.59 872.43 541.36 725.32 541.36 697.71 512.59"/><polygon points="199.45 512.59 30.94 512.59 30.94 541.36 169.07 541.36 199.45 512.59"/><path d="M616.63,278.75h-15.1l-.95-108.13c.33,2.91.64,5.24.87,6.41.86,4.29,2.86,9.11,3.58,13s2.84,11.08,2.84,11.08a7.12,7.12,0,0,1,3.77-1.79,49.1,49.1,0,0,0-2.32-5.18c-1.25-2.32-.9-10,2-16.43A17.61,17.61,0,0,0,610.21,162c-1.79-3-4.48-17.75-7.15-20.55-1.81-1.91-2.54-6-2.82-9.61l0-3.78,0-2.65a2.26,2.26,0,1,0-.06,0l0,1.48c0-.9,0-1.48,0-1.48s-1.17,11.94-1.3,19.8c0,2.8.17,7.11.5,11.68l-3.08,121.84H581v5.41H596.1l-.06,2.23h5.56l0-2.23h15Z" transform="translate(-148.48 -107.19)"/><path d="M322.11,412.11s-9.73,4.77-.74,13.05,10.7-1.86,10.7-1.86L328.79,610l-3,3.85.46,2.81-5.42,4.32H359.7l-4.51-4.25.85-2.55-3-4.38L353,428.67s.35,6,5.06,4.48,7-8.85-3.45-15.75-32.45-5.29-32.45-5.29" transform="translate(-148.48 -107.19)"/><path d="M874.54,411s9.56,5.65.74,13c-5.87,4.92-9.27-1.86-9.27-1.86l1.85,186.66,3,3.86-.46,2.81,5.42,4.31H836.94l4.51-4.25L840.6,613l3-4.38.09-181.09s-.35,6-5.06,4.49-7-8.86,3.45-15.76S874.54,411,874.54,411" transform="translate(-148.48 -107.19)"/><path d="M403,412s-12.29,2.9-7.68,11.46,10.31,2.41,10.31,2.41-1.54,3.07-1.76,19.3-.87,165-.87,165l-3.62,3.6.58,2.84L397.06,620h34l-3.29-3.86L429,613.9l-3.3-4.2s.32-158.23.2-167.08.25-12.64.25-12.64.94,4.43,4.89,2.28,2.57-8-2.11-13.4-5.81-6-8.34-6.91Z" transform="translate(-148.48 -107.19)"/><path d="M477.2,412s-12.29,2.9-7.68,11.46,10.31,2.41,10.31,2.41-1.53,3.07-1.75,19.3-.88,165-.88,165l-3.62,3.6.58,2.84L471.31,620h34l-3.3-3.86,1.25-2.27-3.29-4.2s.32-158.23.19-167.08.25-12.64.25-12.64.94,4.43,4.9,2.28,2.56-8-2.12-13.4-5.81-6-8.34-6.91Z" transform="translate(-148.48 -107.19)"/><path d="M793.83,412s12.28,2.9,7.68,11.46-10.31,2.41-10.31,2.41,1.53,3.07,1.75,19.3.88,165,.88,165l3.62,3.6-.58,2.84,2.85,3.52h-34l3.3-3.86-1.25-2.27,3.29-4.2s-.32-158.23-.19-167.08-.25-12.64-.25-12.64-.94,4.43-4.9,2.28-2.56-8,2.12-13.4,5.81-6,8.34-6.91Z" transform="translate(-148.48 -107.19)"/><path d="M719.58,412s12.28,2.9,7.68,11.46S717,425.82,717,425.82s1.53,3.07,1.75,19.3.88,165,.88,165l3.61,3.6-.57,2.84,2.85,3.52h-34l3.3-3.86-1.25-2.27,3.29-4.2s-.32-158.23-.19-167.08S696.4,430,696.4,430s-.94,4.43-4.9,2.28-2.56-8,2.12-13.4,5.81-6,8.34-6.91Z" transform="translate(-148.48 -107.19)"/><path d="M552.18,411.39s-10.9,3.06-8.62,10.29,7.65,5.59,7.65,5.59-.21,46.3-.83,73.17-.62,110-.62,110l-3.31,3.3.62,2.43L543.25,620h37.81l-4.22-3.83,1.41-2.81-4.06-3.59-2.5-182.41s6.56,0,6.71-5.15-3-10.92-8-10.91Z" transform="translate(-148.48 -107.19)"/><path d="M645.09,411.39s10.9,3.06,8.63,10.29-7.65,5.59-7.65,5.59.21,46.3.83,73.17.62,110,.62,110l3.3,3.3-.62,2.43L654,620H616.22l4.21-3.83-1.4-2.81,4.06-3.59,2.5-182.41s-6.56,0-6.72-5.15,3-10.92,8-10.91Z" transform="translate(-148.48 -107.19)"/><polygon points="183.35 249.26 715 249.26 449.17 185.41 183.35 249.26"/><polygon class="cls-13" points="183.35 249.26 715 249.26 449.17 185.41 183.35 249.26"/></g></g></svg>