<svg id="museum_shape_ref" data-name="museum shape ref" xmlns="http://www.w3.org/2000/svg" xmlns:xlink="http://www.w3.org/1999/xlink" viewBox="0 0 1190.55 841.89"><defs><style>.cls-1,.cls-12,.cls-13,.cls-8,.cls-9{fill:none;}.cls-2{clip-path:url(#clip-path);}.cls-3{clip-path:url(#clip-path-2);}.cls-4{fill:#00aeef;}.cls-5{fill:#2556a6;}.cls-6{opacity:0.8;}.cls-7{clip-path:url(#clip-path-4);}.cls-12,.cls-13,.cls-8,.cls-9{stroke:#fff;stroke-miterlimit:10;}.cls-8{stroke-width:0.5px;}.cls-9{stroke-width:0.4px;}.cls-10{clip-path:url(#clip-path-6);}.cls-11{fill:#2256a6;}.cls-12{stroke-width:0.6px;}</style><clipPath id="clip-path"><rect class="cls-1" x="119.76" y="103.91" width="951.03" height="672.52"/></clipPath><clipPath id="clip-path-2"><rect class="cls-1" x="119.76" y="103.91" width="951.03" height="672.52"/></clipPath><clipPath id="clip-path-4"><rect class="cls-1" x="262.32" y="432.01" width="674.02" height="25.84"/></clipPath><clipPath id="clip-path-6"><rect x="263.08" y="450.72" width="672.2" height="148.29"/></clipPath></defs><title>bm_coverillus_v1a</title><g class="cls-2"><g class="cls-3"><path class="cls-4" d="M841.09,398.89l19.5-17.56-.14-4.18,3.07-2.61v-1.85l1.81-1.39L601.26,308.69l-1.12-81.53c.44,2.52.87,18.12,1.18,19.13,1.16,3.72-.13,7.9.84,11.3a92.08,92.08,0,0,0,3.84,9.6c2.39-1.4,9.89-4.75,9.89-4.75a38.4,38.4,0,0,0-3.14-4.49c-1.69-2-2.8-11.06,1.06-16.63s1-19-1.45-21.61-4.87-15.37-8.47-17.79c-2.46-1.66-2.65-6.71-2.65-6.71L600,192.78c1.39,0,2.51-.73,2.51-1.62s-1.13-1.62-2.53-1.62-5.73.73-5.73,1.62,1.11,1.59,2.47,1.62A56.52,56.52,0,0,0,595,205.17c-.06,2.42-1,6.15-.52,10.11l-3.73,94.55-258,64.71,5.21,4.91v4.38l19.54,16.25h-119v238H963.7V398.89Z"/><path class="cls-5" d="M831.09,401.59l18.82-16.94-.14-4,3-2.52v-1.78l1.74-1.34L599,314.59,597.93,236c.43,2.43.84,4.37,1.14,5.35,1.12,3.58,3.73,7.62,4.66,10.9a88.87,88.87,0,0,0,3.71,9.25,12.39,12.39,0,0,1,4.91-1.49,35.1,35.1,0,0,0-3-4.33c-1.63-1.94-1.16-8.36,2.57-13.73s.93-10.6-1.4-13.14-4.7-14.82-8.17-17.16c-2.37-1.59-2.56-6.47-2.56-6.47l-1.2-2.34c1.34,0,2.42-.7,2.42-1.56s-1.09-1.57-2.44-1.57-2.44.7-2.44,1.57,1.06,1.53,2.38,1.55a54.29,54.29,0,0,0-1.69,12c-.06,2.35-.93,5.94-.5,9.76l-3.6,91.19-252,62.41,5,4.74v4.22l18.84,15.67H245.93V632.32h706.5V401.59Z"/></g><g class="cls-3"><g class="cls-6"><g class="cls-7"><polygon points="935.28 450.72 917.63 457.64 275.58 457.64 263.08 450.72 402.3 449.94 377.07 433.12 818.36 432.21 792.47 450.72 935.28 450.72"/><polygon class="cls-8" points="935.28 450.72 917.63 457.64 275.58 457.64 263.08 450.72 402.3 449.94 377.07 433.12 818.36 432.21 792.47 450.72 935.28 450.72"/></g></g></g><line class="cls-9" x1="917.63" y1="457.64" x2="917.63" y2="599.01"/><line class="cls-9" x1="275.58" y1="457.64" x2="275.58" y2="599.01"/><g class="cls-3"><g class="cls-6"><rect x="263.08" y="450.72" width="672.2" height="148.29"/><g class="cls-10"><polygon points="935.28 450.72 918.43 457.64 275.58 457.64 263.08 450.72 263.08 599.01 935.28 599.01 935.28 450.72"/></g></g></g><rect class="cls-11" x="585.14" y="545.92" width="26.86" height="54.09"/><g class="cls-3"><path d="M299.86,450.72s-7.48,2.42-4.24,9.11,8.48,1,8.48,1L302,592l-2.53,2.91.52,1.78-3.8,3.24h30l-3.68-2.9.78-2.12-2.68-3.24.11-128.15s2.35,4.8,5.47,3.46,1.45-9.27,1.45-9.27-3.46-6.28-10.6-7Z"/><path d="M352.12,450.72s-7.48,2.42-4.24,9.11,8.49,1,8.49,1L354.24,592l-2.52,2.91.52,1.78-3.8,3.24h30l-3.69-2.9.79-2.12-2.68-3.24L373,463.52s2.34,4.8,5.47,3.46,1.45-9.27,1.45-9.27-3.46-6.28-10.6-7Z"/><path d="M898.29,450.72s7.48,2.42,4.24,9.11-8.48,1-8.48,1L896.17,592l2.53,2.91-.52,1.78,3.79,3.24H872l3.68-2.9-.78-2.12,2.68-3.24-.11-128.15s-2.35,4.8-5.47,3.46-1.46-9.27-1.46-9.27,3.46-6.28,10.61-7Z"/><path d="M846,450.72s7.48,2.42,4.25,9.11-8.49,1-8.49,1L843.9,592l2.53,2.91-.52,1.78,3.8,3.24h-30l3.68-2.9-.78-2.12,2.68-3.24-.11-128.15s-2.34,4.8-5.47,3.46-1.45-9.27-1.45-9.27,3.46-6.28,10.6-7Z"/><polygon points="403.47 450.72 377.07 433.12 818.5 431.73 792.47 450.72 935.28 450.72 935.28 408.51 817 408.51 834.67 392.6 834.54 388.82 837.32 386.45 837.32 384.78 838.96 383.51 598.12 326.59 356.44 386.45 361.16 390.9 361.16 394.87 378.86 409.59 263.08 409.59 263.08 450.72 403.47 450.72"/><polygon class="cls-8" points="403.47 450.72 377.07 433.12 818.5 431.73 792.47 450.72 935.28 450.72 935.28 408.51 817 408.51 834.67 392.6 834.54 388.82 837.32 386.45 837.32 384.78 838.96 383.51 598.12 326.59 356.44 386.45 361.16 390.9 361.16 394.87 378.86 409.59 263.08 409.59 263.08 450.72 403.47 450.72"/><polygon points="373.43 621.97 397.69 599.01 795.71 599.01 817.77 621.99 373.43 621.97"/><line class="cls-12" x1="375.86" y1="619.68" x2="815.56" y2="619.68"/><line class="cls-12" x1="378.28" y1="617.38" x2="813.36" y2="617.38"/><line class="cls-12" x1="380.71" y1="615.08" x2="811.15" y2="615.08"/><line class="cls-12" x1="383.14" y1="612.78" x2="808.95" y2="612.78"/><line class="cls-12" x1="385.57" y1="610.49" x2="806.74" y2="610.49"/><line class="cls-12" x1="387.99" y1="608.19" x2="804.54" y2="608.19"/><line class="cls-12" x1="390.42" y1="605.89" x2="802.33" y2="605.89"/><line class="cls-12" x1="392.85" y1="603.6" x2="800.13" y2="603.6"/><line class="cls-12" x1="395.28" y1="601.3" x2="797.92" y2="601.3"/><polygon points="795.71 599.01 935.28 599.01 935.28 621.99 817.77 621.99 795.71 599.01"/><polygon points="397.69 599.01 263.08 599.01 263.08 621.99 373.43 621.99 397.69 599.01"/><path d="M612.34,326.59H600.28l-.77-86.38c.27,2.32.52,4.18.7,5.12.69,3.42,2.29,7.28,2.86,10.41s2.26,8.85,2.26,8.85a5.71,5.71,0,0,1,3-1.42,39.27,39.27,0,0,0-1.86-4.14c-1-1.86-.71-8,1.57-13.13a14,14,0,0,0-.86-12.56c-1.42-2.43-3.57-14.18-5.7-16.41-1.45-1.53-2-4.81-2.26-7.68l0-3v-2.12a1.48,1.48,0,1,0-.06,0l0,1.18c0-.72,0-1.18,0-1.18s-.93,9.54-1,15.82c0,2.23.13,5.67.4,9.32L596,326.59H583.88v4.31h12.06l-.05,1.78h4.44l0-1.78h12Z"/><path d="M377.07,433.11s-7.78,3.81-.59,10.42,8.55-1.48,8.55-1.48L382.4,591.16l-2.4,3.08.37,2.24L376,599.93H407.1l-3.61-3.4.68-2-2.4-3.5-.07-144.66s.28,4.78,4.05,3.58,5.6-7.07-2.76-12.58-25.92-4.23-25.92-4.23"/><path d="M818.36,432.21s7.63,4.51.59,10.42c-4.69,3.93-7.4-1.49-7.4-1.49L813,590.25l2.4,3.08-.36,2.24,4.33,3.45H788.33l3.6-3.39-.68-2,2.4-3.5.07-144.66s-.28,4.78-4,3.58-5.61-7.07,2.75-12.58,25.93-4.22,25.93-4.22"/><path d="M441.64,433s-9.81,2.32-6.13,9.16,8.23,1.92,8.23,1.92-1.22,2.46-1.4,15.42-.7,131.77-.7,131.77l-2.89,2.87.46,2.27-2.27,2.82h27.13l-2.63-3.09,1-1.81L459.8,591s.26-126.4.16-133.46.2-10.1.2-10.1.75,3.53,3.91,1.82,2.05-6.36-1.69-10.7-4.64-4.79-6.66-5.53Z"/><path d="M501,433s-9.81,2.32-6.13,9.16,8.24,1.92,8.24,1.92-1.23,2.46-1.41,15.42-.7,131.77-.7,131.77l-2.88,2.87.46,2.27-2.28,2.82h27.13l-2.63-3.09,1-1.81L519.12,591s.25-126.4.15-133.46.2-10.1.2-10.1.75,3.53,3.91,1.82,2-6.36-1.69-10.7-4.64-4.79-6.66-5.53Z"/><path d="M753.89,433s9.81,2.32,6.13,9.16-8.24,1.92-8.24,1.92,1.23,2.46,1.41,15.42.7,131.77.7,131.77l2.88,2.87-.46,2.27,2.28,2.82H731.46l2.63-3.09-1-1.81,2.63-3.36s-.25-126.4-.15-133.46-.2-10.1-.2-10.1-.75,3.53-3.91,1.82-2.05-6.36,1.69-10.7,4.64-4.79,6.66-5.53Z"/><path d="M694.57,433s9.81,2.32,6.13,9.16-8.23,1.92-8.23,1.92,1.23,2.46,1.4,15.42.7,131.77.7,131.77l2.89,2.87-.46,2.27,2.27,2.82H672.14l2.63-3.09-1-1.81,2.63-3.36s-.26-126.4-.16-133.46-.2-10.1-.2-10.1-.75,3.53-3.91,1.82-2-6.36,1.69-10.7,4.65-4.79,6.66-5.53Z"/><path d="M560.85,432.54s-8.7,2.44-6.89,8.22,6.11,4.46,6.11,4.46-.16,37-.66,58.46-.49,87.84-.49,87.84l-2.64,2.65.49,1.93-3.06,3.11h30.21l-3.37-3.07,1.12-2.24L578.43,591l-2-145.71s5.24,0,5.37-4.12-2.37-8.72-6.37-8.71Z"/><path d="M635.07,432.54s8.71,2.44,6.89,8.22-6.11,4.46-6.11,4.46.17,37,.66,58.46.5,87.84.5,87.84l2.64,2.65-.5,1.93,3.06,3.11H612l3.36-3.07-1.12-2.24,3.24-2.87,2-145.71s-5.24,0-5.36-4.12,2.37-8.72,6.36-8.71Z"/><polygon points="384.83 388.65 809.53 388.65 597.18 337.65 384.83 388.65"/><polygon class="cls-13" points="384.83 388.65 809.53 388.65 597.18 337.65 384.83 388.65"/></g></g></svg>